<svg width="30.000000" height="30.000000" viewBox="0 0 30 30" fill="none" xmlns="http://www.w3.org/2000/svg" xmlns:xlink="http://www.w3.org/1999/xlink">
	<desc>
			Created with Pixso.
	</desc>
	<defs>
		<clipPath id="clip1_677">
			<rect id="ep:menu" rx="-0.500000" width="29.000000" height="29.000000" transform="translate(0.500000 0.500000)" fill="white" fill-opacity="0"/>
		</clipPath>
	</defs>
	<rect id="ep:menu" rx="-0.500000" width="29.000000" height="29.000000" transform="translate(0.500000 0.500000)" fill="#FFFFFF" fill-opacity="0"/>
	<g clip-path="url(#clip1_677)">
		<path id="Vector" d="M4 6L20 6L20 8L4 8L4 6ZM8 11L20 11L20 13L8 13L8 11ZM13 16L20 16L20 18L13 18L13 16Z" fill="#000000" fill-opacity="1.000000" fill-rule="nonzero"/>
		<path id="Vector" d="M4.68 13.12C4.43 13.12 4.2 13.02 4.02 12.85C3.84 12.67 3.75 12.43 3.75 12.18L3.75 4.68C3.75 4.44 3.84 4.2 4.02 4.02C4.2 3.85 4.43 3.75 4.68 3.75L12.18 3.75C12.43 3.75 12.67 3.85 12.85 4.02C13.02 4.2 13.12 4.44 13.12 4.68L13.12 12.18C13.12 12.43 13.02 12.67 12.85 12.85C12.67 13.02 12.43 13.12 12.18 13.12L4.68 13.12ZM17.81 13.12C17.56 13.12 17.32 13.02 17.14 12.85C16.97 12.67 16.87 12.43 16.87 12.18L16.87 4.68C16.87 4.44 16.97 4.2 17.14 4.02C17.32 3.85 17.56 3.75 17.81 3.75L25.31 3.75C25.55 3.75 25.79 3.85 25.97 4.02C26.14 4.2 26.24 4.44 26.24 4.68L26.24 12.18C26.24 12.43 26.14 12.67 25.97 12.85C25.79 13.02 25.55 13.12 25.31 13.12L17.81 13.12ZM4.68 26.25C4.43 26.25 4.2 26.15 4.02 25.97C3.84 25.79 3.75 25.56 3.75 25.31L3.75 17.81C3.75 17.56 3.84 17.32 4.02 17.14C4.2 16.97 4.43 16.87 4.68 16.87L12.18 16.87C12.43 16.87 12.67 16.97 12.85 17.14C13.02 17.32 13.12 17.56 13.12 17.81L13.12 25.31C13.12 25.56 13.02 25.79 12.85 25.97C12.67 26.15 12.43 26.25 12.18 26.25L4.68 26.25ZM17.81 26.25C17.56 26.25 17.32 26.15 17.14 25.97C16.97 25.79 16.87 25.56 16.87 25.31L16.87 17.81C16.87 17.56 16.97 17.32 17.14 17.14C17.32 16.97 17.56 16.87 17.81 16.87L25.31 16.87C25.55 16.87 25.79 16.97 25.97 17.14C26.14 17.32 26.24 17.56 26.24 17.81L26.24 25.31C26.24 25.56 26.14 25.79 25.97 25.97C25.79 26.15 25.55 26.25 25.31 26.25L17.81 26.25Z" fill="#FFFFFF" fill-opacity="1.000000" fill-rule="nonzero"/>
	</g>
</svg>
